<svg width="500" height="500" viewBox="0 0 500 500" fill="none" xmlns="http://www.w3.org/2000/svg">
<g clip-path="url(#clip0_183_1517)">
<rect width="500" height="500" fill="white"/>
<path d="M455.039 24.9746H43.962C19.2974 24.9746 -0.999512 45.2715 -0.999512 69.9361V147.013C-0.999512 164.998 9.53433 180.156 24.6928 187.35V403.936C24.6928 442.988 56.2943 474.59 95.3466 474.59H403.654C442.706 474.59 474.308 442.988 474.308 403.936V187.35C489.466 180.156 500 164.741 500 147.013V69.9361C500 45.2715 479.703 24.9746 455.039 24.9746ZM37.5389 69.9361C37.5389 66.3392 40.3651 63.513 43.962 63.513H455.039C458.635 63.513 461.462 66.3392 461.462 69.9361V147.013C461.462 150.61 458.635 153.436 455.039 153.436H43.962C40.3651 153.436 37.5389 150.61 37.5389 147.013V69.9361ZM435.769 403.936C435.769 421.663 421.382 436.051 403.654 436.051H95.3466C77.6189 436.051 63.2312 421.663 63.2312 403.936V191.974H435.769V403.936Z" fill="#3F3F3F"/>
<path d="M223.806 294.745H275.19C285.724 294.745 294.459 286.01 294.459 275.476C294.459 264.942 285.724 256.207 275.19 256.207H223.806C213.272 256.207 204.536 264.942 204.536 275.476C204.536 286.01 213.272 294.745 223.806 294.745Z" fill="#3F3F3F"/>
</g>
<defs>
<clipPath id="clip0_183_1517">
<rect width="500" height="500" fill="white"/>
</clipPath>
</defs>
</svg>
