<svg width="500" height="500" viewBox="0 0 500 500" fill="none" xmlns="http://www.w3.org/2000/svg">
<rect width="500" height="500" fill="white"/>
<path d="M229.374 125.552C239.005 139.142 243.971 155.497 243.526 172.157C244.336 188.382 239.265 204.354 229.247 217.13C222.597 224.405 214.582 230.297 205.658 234.468C220.204 239.261 232.761 248.735 241.374 261.417C249.698 274.818 253.884 290.385 253.404 306.161C253.654 323.384 248.863 340.304 239.623 354.831C233.948 364.172 226.52 372.324 217.75 378.835C207.409 386.502 195.481 391.743 182.846 394.17C168.47 397.005 153.844 398.378 139.192 398.268H0V93H149.293C186.975 93.5627 213.669 104.413 229.374 125.552ZM61.5833 146.022V213.378H136.71C148.088 213.857 159.383 211.239 169.395 205.802C177.74 200.763 181.958 191.814 181.958 179.011C181.958 164.738 176.425 155.383 165.364 150.781C153.504 147.296 141.172 145.69 128.816 146.022H61.5833ZM61.5833 263.893V345.302H136.608C147.311 345.81 157.996 343.973 167.918 339.918C181.476 333.221 188.222 320.596 188.222 301.783C188.222 285.853 181.694 274.962 168.567 269.013C158.7 265.258 148.183 263.512 137.634 263.878L61.5833 263.893ZM440.159 177.135C456.217 184.267 469.9 195.856 479.59 210.53C489.213 224.453 495.461 240.432 497.839 257.197C499.671 272.062 500.34 287.048 499.839 302.017H333.394C334.409 324.644 342.267 340.543 357.327 349.619C367.291 355.52 378.721 358.472 390.292 358.131C402.197 358.666 413.914 355.013 423.413 347.804C428.524 343.518 432.712 338.237 435.723 332.281H496.717C495.093 345.646 487.719 359.251 474.596 373.095C454.129 395.002 425.476 405.967 388.637 405.987C359.407 406.411 330.948 396.591 308.181 378.225C284.871 359.727 273.237 329.608 273.277 287.867C273.277 248.743 283.768 218.744 304.749 197.87C325.778 177.057 353.003 166.625 386.424 166.574C404.879 166.247 423.194 169.845 440.159 177.13V177.135ZM350.82 228.118C341.903 237.747 336.317 249.994 334.886 263.049H437.85C437.767 256.326 436.313 249.69 433.578 243.55C430.844 237.409 426.885 231.893 421.946 227.34C411.995 219.105 399.386 214.788 386.485 215.198C379.978 214.815 373.461 215.762 367.331 217.982C361.202 220.202 355.587 223.649 350.83 228.113L350.82 228.118ZM319.449 145.239H451.844V107.242H319.46V145.239H319.449Z" fill="#9C9C9C"/>
</svg>
