<svg width="500" height="500" viewBox="0 0 500 500" fill="none" xmlns="http://www.w3.org/2000/svg">
<g clip-path="url(#clip0_215_415)">
<rect width="500" height="500" fill="white"/>
<path d="M249.5 500C387.847 500 500 387.847 500 249.5C500 111.153 387.847 -1 249.5 -1C111.153 -1 -1 111.153 -1 249.5C-1 387.847 111.153 500 249.5 500Z" fill="#C8705C"/>
<path d="M297.015 495.351C297.757 495.234 298.499 495.114 299.24 494.99C307.427 493.332 315.527 491.265 323.508 488.798C331.488 486.339 339.34 483.483 347.035 480.241C354.727 476.991 362.251 473.36 369.58 469.359C376.922 465.343 384.059 460.962 390.963 456.233C397.85 451.524 404.499 446.474 410.882 441.102C417.269 435.72 423.382 430.021 429.199 424.028C435.014 418.028 440.525 411.741 445.712 405.191C450.904 398.657 455.766 391.869 460.281 384.85C464.802 377.822 468.969 370.572 472.766 363.127C476.551 355.687 479.962 348.062 482.986 340.281C486.013 332.495 488.648 324.563 490.882 316.514C492.606 310.049 494.07 303.517 495.271 296.935L348.638 150.362C335.637 137.313 320.187 126.961 303.174 119.9C286.161 112.84 267.92 109.21 249.5 109.22C172.146 109.22 109.22 172.146 109.22 249.5C109.22 278.498 118.078 305.472 133.208 327.856V327.896C135.733 331.624 138.418 335.211 141.284 338.658V338.698C144.13 342.165 147.196 345.472 150.362 348.638L297.015 495.351Z" fill="#9C4E3D"/>
<path d="M249.5 109.22C172.146 109.22 109.22 172.146 109.22 249.5C109.22 326.854 172.146 389.78 249.5 389.78C326.855 389.78 389.78 326.854 389.78 249.5C389.78 172.146 326.855 109.22 249.5 109.22ZM249.5 129.26C316.033 129.26 369.74 182.967 369.74 249.5C369.74 316.033 316.033 369.74 249.5 369.74C182.967 369.74 129.26 316.033 129.26 249.5C129.26 182.967 182.967 129.26 249.5 129.26ZM312.546 192.306L219.44 285.392L186.474 252.426L172.266 266.614L219.44 313.768L326.754 206.494L312.546 192.306Z" fill="white"/>
</g>
<defs>
<clipPath id="clip0_215_415">
<rect width="500" height="500" fill="white"/>
</clipPath>
</defs>
</svg>
