<svg width="500" height="500" viewBox="0 0 500 500" fill="none" xmlns="http://www.w3.org/2000/svg">
<g clip-path="url(#clip0_183_1525)">
<rect width="500" height="500" fill="white"/>
<path d="M250 0C201.961 0 155.001 14.6878 115.059 42.2059C75.1159 69.724 43.9843 108.837 25.6007 154.598C7.21706 200.359 2.40706 250.713 11.779 299.292C21.1508 347.872 44.2837 392.495 78.2522 427.519C112.221 462.543 155.499 486.395 202.615 496.058C249.73 505.721 298.567 500.762 342.949 481.807C387.331 462.852 425.265 430.753 451.954 389.569C478.643 348.385 492.888 299.966 492.888 250.435C492.815 184.039 467.201 120.383 421.667 73.434C376.132 26.4846 314.395 0.075377 250 0ZM462.436 252.312C412.026 238.38 359.17 236.686 308.019 247.363C301.157 229.709 293.746 212.315 285.789 195.18C331.687 173.027 373.702 143.176 410.123 106.843C443.897 146.574 462.519 197.604 462.524 250.435C462.524 251.06 462.436 251.655 462.436 252.312ZM388.658 84.7412C354.684 118.715 315.47 146.632 272.62 167.352C249.828 122.442 223.315 79.6468 193.377 39.4439C227.013 29.6612 262.485 28.6801 296.582 36.5892C330.679 44.4984 362.325 61.0482 388.658 84.7412ZM163.378 50.5254C194.054 90.795 221.128 133.848 244.269 179.155C179.896 204.644 110.499 213.698 41.9983 205.544C48.9581 171.674 63.5802 139.978 84.6734 113.039C105.767 86.1001 132.734 64.6805 163.378 50.5254ZM37.4705 250.435C37.4705 245.741 37.865 241.138 38.1709 236.536C56.04 238.834 74.0247 240.047 92.032 240.167C148.817 239.993 205.073 228.913 257.921 207.492C265.208 223.146 272.039 239.016 278.415 255.104C202.282 278.606 136.526 328.84 92.5499 397.093C57.1368 356.973 37.4987 304.683 37.4705 250.435ZM114.74 419.322C155.123 353.948 217.179 305.941 289.345 284.244C308.623 338.945 322.378 395.551 330.392 453.162C294.852 468.23 256.005 473.041 218.015 467.08C180.024 461.119 144.324 444.61 114.74 419.322ZM358.891 438.261C350.627 383.328 337.331 329.327 319.181 276.982C365.939 268.017 414.077 270.353 459.812 283.807C455.014 315.613 443.482 345.94 426.037 372.634C408.592 399.327 385.661 421.734 358.871 438.261H358.891Z" fill="#9C9C9C"/>
</g>
<defs>
<clipPath id="clip0_183_1525">
<rect width="500" height="500" fill="white"/>
</clipPath>
</defs>
</svg>
