<svg width="500" height="500" viewBox="0 0 500 500" fill="none" xmlns="http://www.w3.org/2000/svg">
<rect width="500" height="500" fill="white"/>
<path d="M446.338 153.355L296.338 3.65479C293.994 1.3142 290.816 0 287.5 0H125C83.5968 0.0456859 50.0458 33.5296 50 74.85V424.15C50.0458 465.47 83.5968 498.954 125 499H375C416.403 498.954 449.954 465.47 450 424.15V162.175C450 158.866 448.683 155.694 446.338 153.355ZM300 42.5889L407.326 149.7H333.325C314.926 149.685 300.015 134.804 300 116.441V42.5889ZM425 424.15C424.965 451.695 402.6 474.015 375 474.05H125C97.3999 474.015 75.0351 451.695 75 424.15V74.85C75.0351 47.3051 97.3999 24.985 125 24.95H275V116.441C275.041 148.572 301.131 174.609 333.325 174.65H425V424.15Z" fill="#3F3F3F"/>
</svg>
