<svg width="500" height="500" viewBox="0 0 500 500" fill="none" xmlns="http://www.w3.org/2000/svg">
<g clip-path="url(#clip0_183_1518)">
<rect width="500" height="500" fill="white"/>
<path d="M379.762 86.673C373.995 86.673 368.357 88.436 363.562 91.739C358.766 95.0421 355.029 99.7368 352.822 105.23C350.615 110.722 350.037 116.766 351.162 122.597C352.287 128.428 355.065 133.785 359.143 137.989C363.221 142.193 368.417 145.056 374.073 146.215C379.73 147.375 385.593 146.78 390.921 144.505C396.249 142.23 400.803 138.377 404.008 133.433C407.212 128.49 408.922 122.678 408.922 116.733C408.922 108.761 405.85 101.115 400.381 95.4774C394.913 89.84 387.496 86.673 379.762 86.673ZM491.542 147.294C491.069 126.51 487.293 105.947 480.364 86.4225C474.185 69.7175 464.569 54.5909 452.176 42.084C440.143 29.244 425.435 19.3931 409.165 13.2765C390.276 5.91583 370.306 1.93411 350.116 1.503C324.358 -1.39978e-06 316.096 0 250 0C183.904 0 175.642 -1.39978e-06 149.884 1.503C129.694 1.93411 109.724 5.91583 90.835 13.2765C74.5947 19.455 59.8995 29.2975 47.824 42.084C35.3685 54.4882 25.8125 69.65 19.879 86.4225C12.7387 105.895 8.8762 126.481 8.458 147.294C7 173.847 7 182.364 7 250.5C7 318.636 7 327.153 8.458 353.706C8.8762 374.519 12.7387 395.105 19.879 414.577C25.8125 431.35 35.3685 446.512 47.824 458.916C59.8995 471.702 74.5947 481.545 90.835 487.723C109.724 495.084 129.694 499.066 149.884 499.497C175.642 501 183.904 501 250 501C316.096 501 324.358 501 350.116 499.497C370.306 499.066 390.276 495.084 409.165 487.723C425.435 481.607 440.143 471.756 452.176 458.916C464.623 446.456 474.249 431.316 480.364 414.577C487.293 395.053 491.069 374.49 491.542 353.706C491.542 327.153 493 318.636 493 250.5C493 182.364 493 173.847 491.542 147.294ZM447.802 350.7C447.625 366.601 444.831 382.356 439.54 397.293C435.66 408.195 429.428 418.045 421.315 426.1C413.433 434.38 403.897 440.791 393.37 444.888C378.88 450.343 363.597 453.223 348.172 453.405C323.872 454.657 314.881 454.908 250.972 454.908C187.063 454.908 178.072 454.908 153.772 453.405C137.756 453.714 121.808 451.172 106.63 445.89C96.5645 441.583 87.4659 435.188 79.9 427.102C71.8345 419.055 65.6807 409.197 61.918 398.295C55.9853 383.144 52.6948 367.031 52.198 350.7C52.198 325.65 50.74 316.381 50.74 250.5C50.74 184.618 50.74 175.35 52.198 150.3C52.3069 134.044 55.1857 117.934 60.703 102.705C64.9809 92.1317 71.5472 82.7065 79.9 75.15C87.2827 66.537 96.4067 59.6965 106.63 55.11C121.442 49.6001 137.054 46.7202 152.8 46.593C177.1 46.593 186.091 45.09 250 45.09C313.909 45.09 322.9 45.09 347.2 46.593C362.625 46.7754 377.908 49.6553 392.398 55.11C403.441 59.3347 413.352 66.2033 421.315 75.15C429.278 82.8448 435.5 92.2524 439.54 102.705C444.941 117.959 447.736 134.062 447.802 150.3C449.017 175.35 449.26 184.618 449.26 250.5C449.26 316.381 449.017 325.65 447.802 350.7ZM250 121.993C225.355 122.043 201.278 129.622 180.81 143.772C160.341 157.923 144.401 178.01 135.004 201.496C125.606 224.982 123.172 250.812 128.009 275.724C132.846 300.635 144.738 323.509 162.182 341.456C179.625 359.403 201.838 371.617 226.012 376.555C250.187 381.493 275.24 378.934 298.004 369.2C320.768 359.467 340.223 342.996 353.91 321.868C367.597 300.741 374.902 275.905 374.902 250.5C374.934 233.594 371.724 216.848 365.455 201.226C359.187 185.603 349.984 171.412 338.376 159.47C326.768 147.527 312.984 138.068 297.817 131.636C282.651 125.204 266.4 121.927 250 121.993ZM250 333.916C233.996 333.916 218.351 329.024 205.044 319.858C191.737 310.692 181.365 297.664 175.241 282.422C169.116 267.18 167.514 250.407 170.636 234.226C173.758 218.045 181.465 203.182 192.782 191.516C204.098 179.85 218.517 171.905 234.213 168.686C249.91 165.468 266.18 167.12 280.966 173.433C295.752 179.747 308.39 190.438 317.282 204.156C326.173 217.874 330.919 234.002 330.919 250.5C330.919 261.454 328.826 272.302 324.759 282.422C320.693 292.543 314.732 301.738 307.218 309.484C299.704 317.23 290.784 323.375 280.966 327.567C271.149 331.759 260.626 333.916 250 333.916Z" fill="#9C9C9C"/>
</g>
<defs>
<clipPath id="clip0_183_1518">
<rect width="500" height="500" fill="white"/>
</clipPath>
</defs>
</svg>
