<svg width="1324" height="336" viewBox="0 0 1324 336" fill="none" xmlns="http://www.w3.org/2000/svg">
<g clip-path="url(#clip0_206_401)">
<rect width="1324" height="336" fill="white"/>
<path d="M242.377 25.336C226.822 7.60283 198.705 0.000189511 162.737 0.000189511H58.3426C54.7819 -0.00170633 51.3375 1.26761 48.6291 3.57968C45.9207 5.89174 44.1262 9.09474 43.5685 12.6123L0.119845 288.379C-0.0816198 289.658 -0.00342414 290.966 0.34905 292.212C0.701524 293.458 1.3199 294.613 2.16156 295.597C3.00322 296.581 4.04817 297.371 5.22441 297.912C6.40066 298.454 7.68023 298.733 8.97498 298.732H73.4232L89.6096 196.041L89.1079 199.257C89.6549 195.747 91.4374 192.547 94.1342 190.235C96.831 187.922 100.265 186.649 103.817 186.645H134.443C194.608 186.645 241.717 162.202 255.478 91.4917C255.887 89.4005 256.24 87.3651 256.547 85.3762C260.635 59.2411 256.519 41.4521 242.386 25.3453" fill="#9C9C9C"/>
<path d="M1031.37 156.56C1027.43 182.435 1007.67 182.435 988.568 182.435H977.697L985.325 134.124C985.79 131.206 988.299 129.059 991.254 129.059H996.243C1009.25 129.059 1021.54 129.059 1027.87 136.466C1031.65 140.899 1032.8 147.48 1031.37 156.56ZM1023.05 89.0473H950.983C948.596 89.0485 946.288 89.9006 944.472 91.4507C942.657 93.0008 941.453 95.1473 941.078 97.505L911.957 282.338C911.823 283.194 911.876 284.07 912.112 284.905C912.348 285.739 912.762 286.513 913.325 287.172C913.888 287.832 914.587 288.362 915.374 288.726C916.162 289.089 917.018 289.279 917.885 289.28H954.867C958.314 289.28 961.25 286.771 961.789 283.369L970.059 230.95C970.821 226.089 975.021 222.493 979.945 222.493H1002.75C1050.23 222.493 1077.62 199.527 1084.78 153.976C1088 134.068 1084.91 118.417 1075.59 107.459C1065.34 95.4138 1047.17 89.038 1023.06 89.038" fill="#CFCFCF"/>
<path d="M517.341 156.56C513.402 182.435 493.647 182.435 474.534 182.435H463.662L471.291 134.124C471.756 131.206 474.264 129.059 477.219 129.059H482.209C495.218 129.059 507.501 129.059 513.838 136.466C517.629 140.899 518.772 147.48 517.341 156.56ZM509.025 89.0474H436.958C432.033 89.0474 427.833 92.6349 427.062 97.5051L397.932 282.338C397.796 283.195 397.848 284.071 398.083 284.906C398.319 285.742 398.733 286.516 399.296 287.176C399.86 287.835 400.559 288.365 401.347 288.729C402.135 289.092 402.992 289.28 403.86 289.28H438.277C443.202 289.28 447.392 285.693 448.164 280.823L456.034 230.96C456.796 226.089 460.996 222.502 465.92 222.502H488.723C536.204 222.502 563.596 199.527 570.751 153.976C573.975 134.068 570.881 118.417 561.561 107.459C551.312 95.4139 533.147 89.0381 509.035 89.0381M676.344 222.92C672.998 242.642 657.36 255.886 637.392 255.886C627.385 255.886 619.366 252.661 614.218 246.564C609.108 240.523 607.194 231.908 608.81 222.325C611.914 202.77 627.821 189.108 647.483 189.108C657.286 189.108 665.23 192.361 670.49 198.514C675.777 204.713 677.858 213.375 676.344 222.92ZM724.438 155.724H689.928C688.494 155.722 687.106 156.233 686.015 157.166C684.924 158.098 684.203 159.39 683.981 160.807L682.476 170.455L680.06 166.96C672.59 156.114 655.929 152.48 639.297 152.48C601.172 152.48 568.605 181.385 562.268 221.907C558.969 242.14 563.652 261.463 575.118 274.949C585.646 287.338 600.671 292.496 618.576 292.496C649.314 292.496 666.355 272.755 666.355 272.755L664.812 282.347C664.677 283.205 664.729 284.082 664.965 284.918C665.201 285.754 665.615 286.528 666.18 287.188C666.744 287.848 667.445 288.378 668.234 288.741C669.023 289.104 669.882 289.291 670.75 289.29H701.822C706.746 289.29 710.946 285.711 711.718 280.832L730.376 162.676C730.51 161.817 730.457 160.94 730.219 160.104C729.982 159.268 729.567 158.494 729.001 157.834C728.436 157.174 727.735 156.644 726.945 156.282C726.156 155.919 725.297 155.732 724.429 155.733" fill="#9C9C9C"/>
<path d="M1190.37 222.92C1187.02 242.642 1171.39 255.886 1151.42 255.886C1141.41 255.886 1133.39 252.661 1128.24 246.564C1123.13 240.523 1121.22 231.908 1122.84 222.325C1125.94 202.77 1141.84 189.108 1161.51 189.108C1171.31 189.108 1179.26 192.361 1184.51 198.514C1189.8 204.713 1191.88 213.375 1190.37 222.92ZM1238.46 155.724H1203.95C1202.52 155.722 1201.13 156.233 1200.04 157.166C1198.95 158.098 1198.23 159.39 1198.01 160.807L1196.5 170.455L1194.09 166.96C1186.61 156.114 1169.95 152.48 1153.32 152.48C1115.21 152.48 1082.64 181.385 1076.29 221.907C1072.99 242.14 1077.69 261.463 1089.15 274.949C1099.68 287.338 1114.71 292.496 1132.61 292.496C1163.36 292.496 1180.4 272.755 1180.4 272.755L1178.86 282.347C1178.72 283.204 1178.77 284.081 1179 284.916C1179.23 285.752 1179.65 286.527 1180.21 287.188C1180.77 287.848 1181.47 288.378 1182.26 288.741C1183.05 289.104 1183.91 289.291 1184.77 289.29H1215.84C1220.76 289.29 1224.96 285.711 1225.74 280.832L1244.4 162.676C1244.53 161.817 1244.48 160.94 1244.24 160.104C1244.01 159.268 1243.59 158.494 1243.03 157.834C1242.46 157.174 1241.76 156.644 1240.97 156.282C1240.18 155.919 1239.32 155.732 1238.45 155.733" fill="#CFCFCF"/>
<path d="M908.24 155.733H873.544C870.227 155.733 867.133 157.378 865.275 160.129L817.422 230.616L797.138 162.88C796.519 160.814 795.251 159.002 793.522 157.713C791.793 156.424 789.695 155.727 787.539 155.724H753.447C752.491 155.724 751.549 155.952 750.699 156.39C749.849 156.828 749.116 157.462 748.56 158.24C748.004 159.017 747.641 159.917 747.502 160.863C747.363 161.809 747.452 162.774 747.761 163.679L785.95 275.822L750.028 326.522C749.393 327.422 749.018 328.479 748.942 329.578C748.867 330.677 749.095 331.775 749.601 332.753C750.107 333.731 750.872 334.551 751.813 335.124C752.753 335.697 753.833 336.001 754.934 336.002H789.593C792.863 336.002 795.939 334.394 797.816 331.699L913.165 165.166C913.791 164.266 914.159 163.212 914.228 162.117C914.298 161.023 914.066 159.93 913.559 158.958C913.051 157.986 912.287 157.171 911.35 156.603C910.412 156.034 909.337 155.733 908.24 155.733Z" fill="#9C9C9C"/>
<path d="M1279.13 94.1312L1249.55 282.347C1249.41 283.204 1249.47 284.081 1249.7 284.916C1249.94 285.751 1250.36 286.525 1250.92 287.185C1251.48 287.845 1252.18 288.374 1252.97 288.738C1253.76 289.101 1254.62 289.289 1255.49 289.29H1285.23C1290.15 289.29 1294.35 285.702 1295.12 280.832L1324.29 95.99C1324.43 95.1321 1324.38 94.255 1324.14 93.4191C1323.9 92.5832 1323.49 91.8086 1322.92 91.1485C1322.36 90.4885 1321.66 89.9588 1320.87 89.596C1320.08 89.2333 1319.22 89.0461 1318.35 89.0473H1285.07C1283.64 89.0437 1282.25 89.5535 1281.16 90.4845C1280.07 91.4154 1279.35 92.7151 1279.13 94.1312Z" fill="#CFCFCF"/>
<path d="M242.377 25.336C226.822 7.60283 198.705 0.000189511 162.737 0.000189511H58.3426C54.7819 -0.00170633 51.3375 1.26761 48.6291 3.57968C45.9207 5.89174 44.1262 9.09474 43.5685 12.6123L0.119845 288.379C-0.0816198 289.658 -0.00342414 290.966 0.34905 292.212C0.701524 293.458 1.3199 294.613 2.16156 295.597C3.00322 296.581 4.04817 297.371 5.22441 297.912C6.40066 298.454 7.68023 298.733 8.97498 298.732H73.4232L89.6096 196.041L89.1079 199.257C89.6549 195.747 91.4374 192.547 94.1342 190.235C96.831 187.922 100.265 186.649 103.817 186.645H134.443C194.608 186.645 241.717 162.202 255.478 91.4917C255.887 89.4005 256.24 87.3651 256.547 85.3762C260.635 59.2411 256.519 41.4521 242.386 25.3453" fill="#9C9C9C"/>
<path d="M106.995 85.7201C107.483 82.6465 109.051 79.8476 111.416 77.8257C113.781 75.8038 116.79 74.6914 119.901 74.6879H201.744C211.435 74.6879 220.476 75.3199 228.737 76.6397C233.253 77.3664 237.721 78.3659 242.117 79.6324C247.109 81.0362 251.939 82.9614 256.528 85.3762C260.635 59.2318 256.51 41.4521 242.377 25.3361C226.813 7.61215 198.705 0.00952569 162.737 0.00952569H58.3333C54.7758 0.0120547 51.3358 1.28335 48.6313 3.59502C45.9268 5.90669 44.135 9.10726 43.5778 12.6217L0.110571 288.36C-0.0922573 289.639 -0.0153977 290.947 0.335859 292.194C0.687116 293.441 1.30442 294.596 2.14522 295.581C2.98602 296.566 4.03034 297.357 5.20621 297.9C6.38207 298.442 7.66153 298.723 8.95641 298.723H73.414L89.6004 196.023L106.995 85.7201Z" fill="#9C9C9C"/>
<path d="M256.538 85.3669C256.219 87.4117 255.863 89.4506 255.469 91.4824C241.708 162.183 194.598 186.636 134.434 186.636H103.798C100.247 186.638 96.8132 187.911 94.1175 190.224C91.4219 192.537 89.6418 195.737 89.0986 199.248L73.414 298.714L68.9539 326.931C68.7765 328.051 68.8442 329.196 69.1521 330.288C69.46 331.38 70.001 332.391 70.7376 333.254C71.4742 334.116 72.389 334.808 73.4189 335.283C74.4488 335.757 75.5694 336.002 76.7033 336.002H131.033C137.463 336.002 142.926 331.318 143.939 324.97L144.469 322.2L154.708 257.29L155.359 253.702C155.846 250.626 157.414 247.825 159.782 245.803C162.149 243.78 165.161 242.67 168.274 242.67H176.405C229.034 242.67 270.243 221.294 282.285 159.432C287.303 133.594 284.701 112.004 271.414 96.8452C267.195 92.1455 262.153 88.2556 256.538 85.3669Z" fill="#CFCFCF"/>
<path d="M242.126 79.6325C240.026 79.0098 237.861 78.4521 235.631 77.9595C233.401 77.4669 231.097 77.0301 228.737 76.6584C220.467 75.3107 211.435 74.6787 201.734 74.6787H119.901C116.786 74.6749 113.773 75.786 111.406 77.8111C109.039 79.8362 107.474 82.6416 106.995 85.7201L89.6004 196.042L89.0986 199.248C89.6418 195.737 91.4219 192.537 94.1176 190.224C96.8132 187.911 100.247 186.638 103.798 186.636H134.434C194.598 186.636 241.708 162.192 255.469 91.4825C255.878 89.3913 256.222 87.3652 256.538 85.367C252.904 83.4649 249.118 81.8671 245.22 80.5898C244.207 80.2552 243.176 79.9485 242.126 79.6325Z" fill="#838383"/>
</g>
<defs>
<clipPath id="clip0_206_401">
<rect width="1324" height="336" fill="white"/>
</clipPath>
</defs>
</svg>
