<svg width="500" height="500" viewBox="0 0 500 500" fill="none" xmlns="http://www.w3.org/2000/svg">
<rect width="500" height="500" fill="white"/>
<path d="M256.655 0C122.415 0 51 87.659 51 183.207C51 227.528 75.3055 282.794 114.218 300.326C120.127 303.042 123.34 301.886 124.663 296.302C125.826 292.061 130.939 271.631 133.416 261.994C133.857 260.491 133.896 258.895 133.53 257.371C133.163 255.847 132.405 254.45 131.332 253.324C118.401 238.123 108.156 210.376 108.156 184.362C108.156 117.711 160.169 52.9906 248.677 52.9906C325.214 52.9906 378.759 103.661 378.759 176.118C378.759 257.991 336.236 314.635 280.975 314.635C250.393 314.635 227.614 290.182 234.841 259.911C243.564 223.885 260.703 185.148 260.703 159.169C260.703 135.861 247.772 116.607 221.412 116.607C190.278 116.607 165.023 148.022 165.023 190.184C164.836 205.662 168.014 220.99 174.328 235.068C174.328 235.068 143.507 361.783 137.783 385.476C128.109 425.556 139.101 490.459 140.051 496.043C140.117 496.714 140.385 497.348 140.818 497.859C141.25 498.37 141.826 498.733 142.468 498.899C143.11 499.065 143.786 499.026 144.405 498.787C145.024 498.548 145.556 498.121 145.929 497.563C148.958 493.51 186.185 439.394 196.624 400.277C200.419 386.024 216.021 328.23 216.021 328.23C226.276 347.099 255.879 362.913 287.416 362.913C381.216 362.913 449 278.918 449 174.685C448.637 74.7635 364.694 0 256.655 0Z" fill="#9C9C9C"/>
</svg>
