<svg width="500" height="500" viewBox="0 0 500 500" fill="none" xmlns="http://www.w3.org/2000/svg">
<rect width="500" height="500" fill="white"/>
<mask id="path-1-inside-1_183_1442" fill="white">
<path d="M250.332 240.275C388.22 240.275 500 352.056 500 489.943H0.664062C0.664162 352.056 112.444 240.275 250.332 240.275Z"/>
</mask>
<path d="M250.332 240.275L250.332 225.475H250.332V240.275ZM500 489.943V504.743H514.8L514.8 489.943L500 489.943ZM0.664062 489.943L-14.1359 489.943L-14.1359 504.743H0.664062V489.943ZM250.332 240.275L250.332 255.075C380.046 255.075 485.2 360.23 485.2 489.943L500 489.943L514.8 489.943C514.8 343.882 396.394 225.475 250.332 225.475L250.332 240.275ZM500 489.943V475.143H0.664062V489.943V504.743H500V489.943ZM0.664062 489.943L15.4641 489.943C15.4642 360.229 120.618 255.075 250.332 255.075V240.275V225.475C104.271 225.475 -14.1358 343.882 -14.1359 489.943L0.664062 489.943Z" fill="#3F3F3F" mask="url(#path-1-inside-1_183_1442)"/>
<circle cx="244.067" cy="121.115" r="103.939" stroke="#3F3F3F" stroke-width="14.8"/>
</svg>
