<?xml version="1.0" encoding="utf-8"?>
<!-- Generator: Adobe Illustrator 25.4.1, SVG Export Plug-In . SVG Version: 6.00 Build 0)  -->
<svg version="1.1" id="Layer_1" xmlns="http://www.w3.org/2000/svg" xmlns:xlink="http://www.w3.org/1999/xlink" x="0px" y="0px"
	 viewBox="0 0 1691.16 676.17" style="enable-background:new 0 0 1691.16 676.17;" xml:space="preserve">
<style type="text/css">
	.st0{fill:#767678;stroke:#767678;stroke-width:7.4516;stroke-linecap:round;stroke-linejoin:round;stroke-miterlimit:10;}
	.st1{fill:none;stroke:#767678;stroke-width:7.4516;stroke-linecap:round;stroke-linejoin:round;stroke-miterlimit:10;}
	.st2{fill:#FEFCF3;}
	.st3{fill:none;stroke:#767678;stroke-width:10.3132;stroke-linecap:round;stroke-linejoin:round;stroke-miterlimit:10;}
	.st4{fill:#767678;}
	.st5{fill:#7FD680;}
	.st6{fill:#E45762;}
	.st7{fill:none;stroke:#767678;stroke-width:7.4516;stroke-linecap:round;stroke-miterlimit:10;}
	.st8{fill:#CD2E91;}
	.st9{fill:#C63097;}
	.st10{fill:#A538B1;}
	.st11{fill:none;stroke:#767678;stroke-width:4.8906;stroke-miterlimit:10;}
	.st12{fill:none;stroke:url(#SVGID_1_);stroke-width:23.4748;stroke-miterlimit:10;}
	.st13{fill:none;stroke:#767678;stroke-width:7.2198;stroke-linecap:round;stroke-miterlimit:10;}
	.st14{fill:#CECECE;}
	.st15{fill:none;stroke:#FFFFFF;stroke-width:7.4516;stroke-linecap:round;stroke-miterlimit:10;}
	.st16{fill:#FEF9F5;}
	.st17{fill:#2B2B2B;}
	.st18{fill:#C5705D;}
	.st19{fill:#F8793B;}
	
		.st20{fill:none;stroke:url(#SVGID_00000137854644021906025270000006779210155683675297_);stroke-width:23.4748;stroke-miterlimit:10;}
	
		.st21{fill:none;stroke:url(#SVGID_00000054976608082729283770000006293613338003096723_);stroke-width:23.4748;stroke-miterlimit:10;}
	.st22{clip-path:url(#SVGID_00000077306731643727369760000014146594515551512992_);}
	.st23{clip-path:url(#SVGID_00000046301260705189878120000013732107086871073706_);}
</style>
<g>
	<g>
		<path class="st18" d="M900.23,44.14c0.32,1.38-0.99,4.31-3.93,8.81c-2.95,4.5-8.25,12.45-15.93,23.84
			c-7.68,11.4-57.88,93.62-68.67,109.55c-10.8,15.94-19.83,29.29-27.11,40.05L1043,166.14c1.03-0.24,1.71,0.33,2.03,1.7
			c0.96,4.13-0.1,6.56-3.2,7.28l-264.1,61.57c-69.18,104.63-101.97,164.68-98.36,180.16c0.88,3.78,3.73,5.12,8.55,3.99
			c8.26-1.93,29.4-20.09,63.46-54.51c5.92-5.73,9.48-9.09,10.7-10.11l2.84,7.5c-39.57,41.87-69.15,65.09-88.76,69.66
			c-10.32,2.41-16.36-0.18-18.13-7.74c-2.49-10.66,2.23-26.99,14.15-49c15.39-30.43,42.53-75.02,81.43-133.78L178.48,376.94
			c-4.82,1.12-7.56,0.23-8.25-2.7c-0.68-2.92,0.35-4.7,3.11-5.35l586.99-136.85L882.36,44.49c1.4-1.77,4.54-3.05,9.44-3.83
			C896.69,39.88,899.51,41.04,900.23,44.14z"/>
		<path class="st18" d="M664.06,619.54c-2.65-11.35-0.19-24.17,7.36-38.44s20.04-29.97,37.44-47.08
			c27.5-26.73,65.04-59.42,112.61-98.07c2.16-1.59,3.85-2.9,5.07-3.9c4.48-7.22,11.57-19.21,21.27-35.97
			c9.69-16.77,18.23-31.09,25.62-42.97c-26.23,27.51-45.36,42.68-57.4,45.48c-12.05,2.81-19.06-0.1-21.07-8.69
			c-2.73-11.69,8.46-33.7,33.57-66.04c8.05-10.58,11.78-17.16,11.17-19.74c-0.6-2.58-2.28-3.55-5.03-2.91
			c-5.85,1.36-14.61,7.76-26.27,19.18c-11.67,11.42-18.98,18.57-21.93,21.43c-2.96,2.87-7.29,7.23-13,13.1
			c-5.7,5.87-9.73,9.98-12.08,12.34l-3.23-6.86c39.91-41.95,66.57-64.49,79.99-67.62c8.94-2.08,14.58,1.87,16.9,11.84
			c2.49,10.67-8.86,31.99-34.05,63.97c-8.39,10.67-12.27,17.37-11.63,20.12c0.4,1.72,2.83,2.06,7.31,1.01
			c10.32-2.41,24.56-12.88,42.72-31.45c18.16-18.56,32.9-36.23,44.22-53.02c16.41-24.5,25.56-36.97,27.46-37.41
			c1.89-0.44,4.93-0.6,9.13-0.5c4.19,0.11,6.44,0.77,6.72,1.97c0.28,1.21-1.49,4.52-5.3,9.94c-3.82,5.43-28.94,45.47-75.37,120.12
			c29.7-25.07,52.74-45.66,69.1-61.81c16.37-16.14,25.85-25.62,28.47-28.4l2.84,7.5c-13.39,12.56-22.84,21.84-28.33,27.82
			c-20.64,20.4-48.35,44.64-83.16,72.7c-39.05,62.78-73.03,113.41-101.96,151.9c-28.93,38.48-52.34,59.81-70.23,63.98
			C673.02,635.41,666.71,630.9,664.06,619.54z M687.11,567.92c-7.43,9.35-12.43,17.86-14.99,25.53c-2.56,7.67-2.96,15.29-1.2,22.86
			c1.76,7.56,6.44,10.47,14,8.71c18.57-4.33,62.35-63.15,131.33-176.43c-54.07,43.43-87.25,71.84-99.55,85.23
			C704.41,547.2,694.55,558.57,687.11,567.92z"/>
		<path class="st18" d="M1104.51,231.22c4.13-0.96,7.72-0.34,10.77,1.84c3.05,2.2,5.02,5.18,5.9,8.96
			c1.77,7.57-2.26,17.94-12.06,31.11c-9.81,13.17-19.76,25.74-29.84,37.69c-10.09,11.97-14.57,20.35-13.44,25.17
			c0.64,2.75,3.2,3.61,7.67,2.57c14.79-3.45,35.31-17.31,61.58-41.56c11.39-10.27,23.27-22.29,35.66-36.06l2.84,7.5
			c-9.93,10.3-21.2,21.08-33.8,32.37c-7.05,7.09-17.72,15.82-31.97,26.22c-14.26,10.4-26.55,16.8-36.87,19.21
			c-10.32,2.41-16.57-1.04-18.73-10.32c-2.17-9.29,1.7-21.07,11.62-35.36c9.91-14.28,20.14-27.18,30.69-38.71
			c10.55-11.52,15.57-18.41,15.05-20.65c-0.52-2.23-3.71-2.67-9.55-1.31c-15.83,3.69-37.58,19.29-65.26,46.77
			c-13.31,12.89-33.88,39.82-61.69,80.76l-97.75,150.1c-20.47,31.97-31.7,49.55-33.68,52.74c-1.98,3.18-5.98,5.47-12,6.87
			c-6.01,1.4-9.31,0.9-9.87-1.51c-1.12-4.82,73.08-118.23,222.62-340.25l-35.18,38.12c-13.78,15.55-28.47,31.12-44.06,46.73
			l-3.23-6.86c53.72-58.95,91.48-100.76,113.3-125.43c32.64-48.23,51.54-72.95,56.7-74.15c2.75-0.64,4.49,0.59,5.21,3.68
			c1.12,4.82-12.6,24.52-41.17,59.11l-77.88,120.98C1051.29,258.87,1080.78,236.76,1104.51,231.22z"/>
		<path class="st18" d="M1181.76,287.21c2.33,9.98,10.36,13.36,24.13,10.15c26.14-6.09,55.36-27.77,87.66-65.05l2.84,7.5
			c-33.94,38.02-65.35,60.39-94.25,67.13c-20.64,4.81-32.97-1.38-36.98-18.58s4.64-38.08,25.93-62.63
			c21.29-24.55,45.53-39.99,72.71-46.33c8.59-2,13.5-0.43,14.7,4.73c1.92,8.25-5.31,20.38-21.72,36.35
			c-16.4,15.98-39.44,30.33-69.12,43.05C1182.36,273.46,1180.39,281.36,1181.76,287.21z M1265.93,190.87
			c-0.64-2.75-3.72-3.49-9.22-2.21c-5.51,1.28-15.47,9.14-29.87,23.56c-14.41,14.43-26.06,29.02-34.95,43.79
			c22.16-9.16,40.4-20.75,54.73-34.79C1260.94,207.18,1267.37,197.06,1265.93,190.87z"/>
		<path class="st18" d="M1311.61,267.81c-0.88-3.78,1.13-9.15,6.04-16.1c4.91-6.94,9.85-11,14.84-12.16
			c4.98-1.16,8.01,0.5,9.05,4.96c1.2,5.16-0.71,10.96-5.74,17.39c-5.03,6.43-10.04,10.23-15.03,11.39
			C1315.79,274.46,1312.73,272.63,1311.61,267.81z"/>
		<path class="st18" d="M1390.42,241.82c2.09,8.95,9.58,11.91,22.48,8.9s28.51-11.08,46.85-24.25
			c18.33-13.16,34.65-27.94,48.97-44.33l2.84,7.5c-14.84,17.25-32.35,32.76-52.54,46.52c-20.18,13.77-38.01,22.47-53.49,26.08
			c-20.64,4.81-32.72-0.35-36.25-15.49c-3.85-16.51,4.78-37.84,25.89-63.98c21.11-26.14,43.7-42.02,67.78-47.63
			c11.69-2.73,18.55,0.21,20.55,8.81c1.36,5.85,0.49,11.85-2.6,18.01c-3.1,6.16-7.92,10.01-14.45,11.53
			c-6.54,1.52-10.21,0.57-11.01-2.87c-0.8-3.44,0.36-6.97,3.51-10.61c3.14-3.63,7.02-6.07,11.62-7.34c4.61-1.25,6.54-3.43,5.82-6.53
			c-0.4-1.71-1.81-3.11-4.24-4.18s-5.19-1.24-8.28-0.52c-16.51,3.85-33.64,18.28-51.39,43.27
			C1394.72,209.72,1387.37,228.75,1390.42,241.82z"/>
		<path class="st18" d="M1588.93,108.5c18.23-4.25,28.75-0.36,31.56,11.68c2.41,10.32-1.07,24.19-10.43,41.61l0.96,4.13
			c2.65,11.35,8.96,15.87,18.94,13.54c6.19-1.44,12.47-5.63,18.83-12.55l21.44-22.4l2.84,7.5l-20.25,20.5
			c-9.33,9.79-19.23,15.91-29.72,18.36c-10.5,2.45-18.7-1.26-24.63-11.13c-21.83,30.84-45.12,49.15-69.89,54.92
			c-14.79,3.45-23.83-1.88-27.12-15.98c-4.17-17.89,1.98-39,18.42-63.33C1536.32,131.01,1559.34,115.39,1588.93,108.5z
			 M1531.68,224.66c24.77-5.77,45.96-23.77,63.58-53.99l-0.12-0.52c-3.85-16.51,0.45-33.84,12.91-51.97
			c-1.91-3.54-5.28-4.75-10.1-3.63c-25.46,5.94-45.76,20.74-60.92,44.4c-15.16,23.66-21.05,42.72-17.68,57.17
			C1521.03,223.34,1525.15,226.19,1531.68,224.66z"/>
	</g>
	<g>
		<g>
			<path class="st18" d="M104.29,200.35c18.23-4.25,28.75-0.35,31.56,11.68c2.41,10.32-1.08,24.19-10.43,41.6l0.96,4.13
				c2.65,11.35,8.95,15.86,18.94,13.54c6.19-1.44,12.47-5.63,18.83-12.55l21.44-22.41l2.84,7.5l-20.25,20.5
				c-9.33,9.79-19.23,15.91-29.72,18.35c-10.5,2.45-18.71-1.26-24.63-11.12c-21.83,30.84-45.12,49.15-69.89,54.92
				c-14.79,3.45-23.83-1.88-27.12-15.98c-4.17-17.88,1.98-38.99,18.42-63.32C51.68,222.87,74.69,207.25,104.29,200.35z
				 M47.04,316.53c24.77-5.77,45.96-23.77,63.58-54l-0.12-0.52c-3.85-16.51,0.45-33.84,12.91-51.98c-1.91-3.54-5.28-4.75-10.09-3.63
				c-25.46,5.94-45.76,20.73-60.92,44.4c-15.16,23.66-21.05,42.72-17.68,57.17C36.4,315.2,40.51,318.05,47.04,316.53z"/>
			<path class="st18" d="M326.26,158.39c4.13-0.96,7.72-0.35,10.77,1.84c3.04,2.2,5.02,5.18,5.9,8.96
				c1.77,7.57-2.26,17.94-12.06,31.1c-9.81,13.17-19.76,25.74-29.84,37.7c-10.09,11.97-14.57,20.35-13.45,25.17
				c0.64,2.75,3.2,3.61,7.67,2.56c14.79-3.45,35.32-17.3,61.58-41.56c11.38-10.27,23.27-22.29,35.66-36.06l2.84,7.5
				c-9.93,10.3-21.2,21.09-33.8,32.36c-7.05,7.08-17.71,15.83-31.97,26.22c-14.26,10.4-26.55,16.8-36.87,19.2
				c-10.32,2.41-16.56-1.03-18.73-10.32c-2.17-9.29,1.7-21.07,11.62-35.35c9.91-14.28,20.14-27.18,30.69-38.71
				c10.55-11.52,15.57-18.4,15.04-20.65c-0.52-2.23-3.71-2.67-9.55-1.31c-15.83,3.69-37.58,19.29-65.26,46.77
				c-13.31,12.89-33.88,39.82-61.69,80.76l-97.76,150.1c-20.47,31.98-31.7,49.56-33.68,52.74s-5.98,5.47-12,6.88
				c-6.01,1.4-9.31,0.9-9.87-1.51c-1.12-4.82,73.08-118.23,222.62-340.25l-35.18,38.13c-13.79,15.55-28.48,31.12-44.06,46.72
				l-3.23-6.86c53.72-58.95,91.48-100.76,113.3-125.43c32.64-48.23,51.54-72.95,56.7-74.15c2.75-0.64,4.49,0.59,5.21,3.68
				c1.12,4.82-12.6,24.52-41.17,59.11l-77.89,120.99C273.04,186.03,302.53,163.93,326.26,158.39z"/>
			<path class="st18" d="M403.5,214.38c2.33,9.98,10.37,13.36,24.13,10.15c26.14-6.09,55.36-27.77,87.66-65.05l2.84,7.5
				c-33.94,38.02-65.35,60.39-94.25,67.13c-20.64,4.81-32.97-1.38-36.98-18.58s4.64-38.08,25.93-62.63
				c21.29-24.55,45.53-39.99,72.71-46.33c8.59-2,13.5-0.43,14.7,4.73c1.93,8.26-5.32,20.38-21.72,36.35
				c-16.4,15.98-39.44,30.33-69.12,43.05C404.11,200.63,402.14,208.53,403.5,214.38z M487.68,118.04c-0.64-2.75-3.72-3.49-9.22-2.2
				c-5.51,1.28-15.47,9.14-29.87,23.56c-14.41,14.43-26.06,29.02-34.95,43.78c22.16-9.15,40.4-20.75,54.73-34.79
				C482.68,134.35,489.12,124.23,487.68,118.04z"/>
			<path class="st18" d="M577.49,111.24l23.53-8.75c4.13-0.96,7.71-0.35,10.77,1.84c3.05,2.2,5.02,5.18,5.9,8.96
				c1.77,7.57-1.65,17.07-10.22,28.5c-8.58,11.44-17.2,22.33-25.84,32.69c-8.65,10.36-12.41,17.94-11.29,22.76
				c0.64,2.75,3.19,3.61,7.67,2.57c14.79-3.45,35.32-17.3,61.58-41.56c11.38-10.27,23.27-22.29,35.66-36.06l2.84,7.5
				c-9.93,10.3-21.2,21.09-33.8,32.36c-7.05,7.09-17.72,15.83-31.97,26.22c-14.26,10.4-26.55,16.8-36.87,19.2
				c-10.32,2.41-16.56-1.03-18.73-10.32c-2.48-10.66,0.67-22,9.47-34.04c8.8-12.02,17.88-22.48,27.23-31.38
				c9.35-8.89,13.63-15.05,12.83-18.49c-0.24-1.03-1.57-1.27-3.98-0.71l-28.29,9.32c-5.51,1.28-10.62,1.93-15.32,1.94
				c-13.79,15.55-28.48,31.12-44.06,46.72l-3.23-6.86l41.08-45.49c-1.18-6.61,1.42-14.11,7.81-22.49
				c6.39-8.38,12.33-13.21,17.84-14.5c5.5-1.28,8.6-0.46,9.28,2.46c0.68,2.93-1.73,7.39-7.22,13.38c-5.5,6-8,10.03-7.52,12.09
				C573.13,111.17,574.74,111.89,577.49,111.24z"/>
			<path class="st18" d="M805.78,44.96c5.6-7.1,8.73-10.74,9.43-10.9c9.53-1.13,14.52-1.48,14.99-1.04c0.46,0.44,0.78,1,0.94,1.68
				c0.16,0.69-0.72,3.16-2.62,7.41c-1.92,4.25-8.01,14.65-18.3,31.2c-25.75,40.47-37.82,64.13-36.21,71.01
				c0.64,2.75,2.16,3.85,4.57,3.29c16.51-3.85,43.82-26.72,81.93-68.61l2.84,7.5c-38.78,40.6-67.63,63.1-86.54,67.51
				c-9.29,2.17-14.95-1.14-17-9.91c-2.05-8.77,0.62-21.45,8-38.04c-33.62,39.39-61.74,61.9-84.36,67.55
				c-8.26,1.93-13.55-2.1-15.88-12.08c-4.17-17.88,2.82-39.64,20.96-65.28c18.14-25.62,45.96-42.81,83.46-51.56
				C784.36,41.8,795.62,41.89,805.78,44.96z M687.7,163.89c13.07-3.05,28.98-13.74,47.74-32.08c18.75-18.33,33.99-35.4,45.73-51.19
				c11.73-15.79,17.36-24.72,16.88-26.79c-0.48-2.07-3.38-3.2-8.68-3.42c-5.31-0.21-12.27,0.68-20.86,2.69
				c-8.6,2.01-19.17,8.01-31.71,18c-12.54,10-22.89,20.84-31.04,32.54c-8.16,11.69-14.63,22.82-19.42,33.36
				c-4.79,10.55-6.71,17.89-5.75,22.02S683.91,164.78,687.7,163.89z"/>
		</g>
	</g>
</g>
</svg>
